<?xml version="1.0"?>
<svg xmlns="http://www.w3.org/2000/svg" xmlns:xlink="http://www.w3.org/1999/xlink" version="1.1" id="Capa_1" x="0px" y="0px" viewBox="0 0 512.002 512.002" style="enable-background:new 0 0 512.002 512.002;" xml:space="preserve" width="512px" height="512px" class=""><g><g>
	<g>
		<path d="M364.994,195.47h-0.142c-5.522,0-10,4.477-10,10c0,5.523,4.477,10,10,10h0.142c5.522,0,10-4.477,10-10    C374.994,199.947,370.516,195.47,364.994,195.47z" data-original="#000000" class="active-path" data-old_color="#000000" fill="#FFFFFF"/>
	</g>
</g><g>
	<g>
		<path d="M143.546,244.137c-1.129-5.405-6.424-8.869-11.835-7.742l-0.331,0.072c-5.386,1.224-8.771,6.584-7.547,11.97    c1.055,4.64,5.17,7.788,9.733,7.788c0.733,0,1.479-0.081,2.224-0.25l-2.032-9.791l2.047,9.788    C141.21,254.842,144.677,249.543,143.546,244.137z" data-original="#000000" class="active-path" data-old_color="#000000" fill="#FFFFFF"/>
	</g>
</g><g>
	<g>
		<path d="M414.917,352.536c3.75-3.878,7.132-8.257,10.066-13.111c13.982-23.133,13.431-50.158-0.695-71.737    c21.204-14.38,33.954-37.812,33.954-63.585c0-29.202-16.361-55.266-42.369-68.6c3.403-17.834-0.54-36.182-11.301-51.49    c-11.117-15.815-27.813-26.083-46.775-29.053c-1.028-12.941-6.326-25.11-15.386-35.013C330.815,7.27,314.166,0,296.735,0    c-21.42,0-40.295,10.791-51.245,27.084C234.54,10.791,215.665,0,194.244,0c-17.431,0-34.079,7.27-45.676,19.945    c-9.061,9.903-14.358,22.071-15.387,35.014c-18.962,2.97-35.657,13.238-46.775,29.054c-10.761,15.308-14.704,33.657-11.301,51.49    c-26.008,13.334-42.369,39.399-42.369,68.6c0,25.773,12.75,49.206,33.954,63.585c-14.125,21.579-14.678,48.604-0.695,71.737    c14.587,24.134,40.195,36.576,67.486,33.67c1.527,11.899,6.697,23.231,14.945,32.309c11.607,12.775,28.307,20.102,45.817,20.102    c21.42,0,40.295-10.791,51.245-27.083c10.95,16.293,29.825,27.083,51.245,27.083c7.628,0,15.101-1.392,22.067-4.017    c-0.405,3.267-0.638,6.587-0.638,9.962c0,44.416,36.136,80.551,80.552,80.551s80.552-36.135,80.552-80.551    C479.267,392.582,451.595,360.056,414.917,352.536z M235.49,365.764c-0.001,21.914-18.503,39.742-41.246,39.742    c-11.887,0-23.19-4.939-31.015-13.55c-6.07-6.681-9.561-14.872-10.14-23.549c20.536-7.834,25.749-21.534,29.654-31.811    c3.352-8.821,5.197-13.681,15.249-16.374c5.335-1.429,8.501-6.913,7.071-12.248c-1.429-5.334-6.915-8.503-12.247-7.071    c-19.937,5.342-24.834,18.232-28.77,28.589c-3.848,10.126-6.627,17.443-23.41,21.94c-0.012,0.003-0.024,0.008-0.036,0.012    c-0.01,0.003-0.021,0.004-0.031,0.006c-27.806,7.663-48.327-7.265-57.458-22.37c-9.092-15.043-12.329-38.04,5.855-57.471    c2.178-2.328,3.116-5.554,2.525-8.687c-0.592-3.132-2.641-5.795-5.518-7.169c-20.502-9.793-33.238-29.583-33.238-51.649    c0-23.804,14.81-44.835,37.731-53.58c5.007-1.91,7.618-7.427,5.921-12.51c-4.808-14.401-2.482-29.891,6.38-42.499    c9.289-13.214,24.074-21.02,40.574-21.427c19.923,0.041,24.532,8.374,30.359,18.919c5.17,9.358,12.252,22.175,31.108,22.175    c5.522,0,10-4.477,10-10s-4.478-10-10-10c-6.405,0-8.297-2.245-13.603-11.847c-5.695-10.308-13.98-25.269-37.883-28.576    c1.011-7.855,4.43-15.222,10.001-21.312C171.143,24.901,182.412,20,194.244,20c22.742,0,41.245,17.829,41.245,39.743v153.729    c-28.325-2.411-35.434-15.439-43.53-30.299c-7.784-14.289-17.473-32.072-46.461-35.138c-5.493-0.578-10.415,3.401-10.996,8.893    c-0.581,5.492,3.4,10.415,8.893,10.997c18.55,1.961,23.504,11.054,31.002,24.817c2.769,5.083,5.73,10.51,9.597,15.701    c-6.033,6.382-15.43,13.043-26.136,18.35c-4.947,2.453-6.97,8.453-4.517,13.401c1.745,3.521,5.286,5.561,8.967,5.561    c1.492,0,3.007-0.335,4.434-1.043c12.916-6.403,23.947-14.265,31.676-22.418c8.677,5.768,20.41,10.012,37.072,11.219V365.764z     M332.023,386.325c-0.241,0.355-0.467,0.722-0.702,1.082c-1.068,1.577-2.255,3.1-3.571,4.548    c-7.824,8.612-19.129,13.551-31.016,13.551c-22.742,0-41.245-17.828-41.245-39.742v-80.57c0-21.014,11.163-31.492,21.609-34.292    c12.969-3.475,26.51,3.216,34.494,17.045c2.762,4.783,8.878,6.422,13.66,3.66c4.783-2.761,6.422-8.877,3.66-13.66    c-12.646-21.903-35.016-32.249-56.991-26.364c-6.124,1.641-11.645,4.444-16.433,8.197v-76.529    c25.294,1.814,32.665,10.799,41.718,21.865c7.571,9.257,16.154,19.749,34.549,25.599c1.008,0.32,2.028,0.473,3.033,0.473    c4.238,0,8.174-2.717,9.526-6.972c1.674-5.263-1.235-10.887-6.499-12.561c-12.735-4.05-18.479-11.072-25.129-19.202    c-10.396-12.709-22.084-26.965-57.198-29.225V59.743c0-21.914,18.503-39.743,41.245-39.743c11.833,0,23.103,4.901,30.921,13.447    c5.571,6.089,8.99,13.457,10,21.311c-23.903,3.307-32.188,18.268-37.883,28.576c-5.306,9.603-7.197,11.848-13.603,11.848    c-5.522,0-10,4.477-10,10s4.478,10,10,10c18.855,0,25.938-12.817,31.108-22.175c5.826-10.545,10.434-18.878,30.358-18.919    c16.5,0.408,31.285,8.213,40.575,21.427c8.862,12.607,11.188,28.097,6.379,42.499c-1.697,5.083,0.914,10.6,5.921,12.51    c22.921,8.744,37.731,29.776,37.731,53.58c0,22.065-12.736,41.856-33.238,51.649c-2.877,1.374-4.926,4.037-5.518,7.169    c-0.591,3.133,0.348,6.359,2.525,8.687c18.185,19.431,14.948,42.428,5.855,57.471c-9.13,15.106-29.663,30.03-57.458,22.37    c-0.01-0.003-0.02-0.004-0.03-0.006c-0.012-0.003-0.024-0.008-0.036-0.012c-16.783-4.497-19.563-11.814-23.41-21.94    c-3.936-10.357-8.833-23.248-28.77-28.589c-5.335-1.431-10.817,1.737-12.247,7.071c-1.43,5.335,1.736,10.818,7.071,12.248    c10.052,2.693,11.898,7.553,15.25,16.375c3.905,10.278,9.119,23.977,29.653,31.811    C337.462,374.779,335.457,380.883,332.023,386.325z M398.715,492.001c-33.389,0-60.552-27.163-60.552-60.551    c0-12.21,3.644-23.579,9.886-33.1c0.168-0.252,0.328-0.509,0.492-0.763c10.895-16.091,29.32-26.689,50.174-26.689    c33.389,0,60.552,27.163,60.552,60.551S432.104,492.001,398.715,492.001z" data-original="#000000" class="active-path" data-old_color="#000000" fill="#FFFFFF"/>
	</g>
</g><g>
	<g>
		<path d="M418.282,436.595h-20.295V406.84c0-5.523-4.478-10-10-10c-5.522,0-10,4.477-10,10v39.755c0,5.523,4.478,10,10,10h30.295    c5.522,0,10-4.477,10-10S423.805,436.595,418.282,436.595z" data-original="#000000" class="active-path" data-old_color="#000000" fill="#FFFFFF"/>
	</g>
</g></g> </svg>
