<?xml version="1.0"?>
<svg xmlns="http://www.w3.org/2000/svg" id="Capa_1" enable-background="new 0 0 512 512" height="512px" viewBox="0 0 512 512" width="512px" class="hovered-paths"><g><g><path d="m443.315 299.881h-156.464c-13.7 0-24.846 11.146-24.846 24.846v13.436c0 13.7 11.146 24.846 24.846 24.846h11.781c-.926.784-14.015 15.655-36.42 25.229-7.954-27.113-42.977-34.525-61.198-12.886l-14.389 17.088c-63.559-18.73-73.985-75.282-74.659-76.42-11.356-41.82 16.414-82.394 56.466-89.836 4.386-.815 8.905-1.228 13.433-1.228 9.78 0 17.736-7.956 17.736-17.736v-22.757c6.551-2.065 12.558-5.372 17.737-9.647l35.965 35.965-5.477 5.477c-2.929 2.929-2.929 7.678 0 10.607 2.928 2.929 7.677 2.929 10.607 0 .458-.458 10.211-10.211 12.955-12.954l10.353 10.353c4.097 4.096 10.174 5.674 15.919 3.847l8.124 8.124c7.436 7.435 19.532 7.435 26.968 0l8.921-8.922c7.435-7.435 7.435-19.532 0-26.966l-8.124-8.124c1.728-5.432.454-11.62-3.848-15.92l-10.352-10.352c3.096-3.096 10.589-10.589 12.955-12.955 2.929-2.929 2.929-7.678 0-10.607s-7.677-2.929-10.608 0l-5.477 5.477-12.216-12.216c-2.93-2.929-7.678-2.929-10.608 0-2.929 2.929-2.929 7.678 0 10.607l12.217 12.216c-17.594 17.594-24.089 24.089-41.702 41.702l-36.456-36.455c5.767-8.467 9.144-18.685 9.144-29.679 0-29.146-23.712-52.859-52.859-52.859-10.994 0-21.213 3.377-29.679 9.144l-17.416-17.416c-.343-.343-.346-.898 0-1.244l40.458-40.458c.342-.342.902-.342 1.244 0l90.346 90.346c2.93 2.929 7.678 2.929 10.608 0 2.929-2.929 2.929-7.678 0-10.607l-90.347-90.346c-4.81-4.811-12.023-5.976-18.053-3.099l-10.7-10.7c-9.065-9.066-23.816-9.066-32.882 0l-15.079 15.079c-9.065 9.066-9.065 23.817 0 32.882l10.705 10.705c-2.801 5.898-1.781 13.173 3.093 18.048l16.925 16.925c-5.599 6.783-9.527 14.987-11.188 23.975-55.203 34.744-88.813 96.357-87.917 161.708.057 4.107 3.403 7.397 7.498 7.397h.105c4.142-.057 7.453-3.461 7.397-7.603-.78-56.838 26.807-110.605 72.725-143.329 4.099 25.094 25.922 44.311 52.158 44.311.289 0 .574-.017.861-.022v20.344c0 1.508-1.227 2.735-2.735 2.735-5.445 0-10.886.498-16.173 1.481-48.422 8.997-81.924 57.979-68.202 108.515 11.053 40.793 40.467 71.485 78.697 84.885l-22.929 27.23c-41.676-18.359-74.612-54.284-87.975-101.867-1.025-3.656-1.941-7.389-2.724-11.093-.855-4.052-4.833-6.639-8.888-5.789-4.053.856-6.644 4.836-5.789 8.888.85 4.022 1.845 8.074 2.958 12.044 13.913 49.592 47.744 88.716 92.383 109.733l-1.024 1.216h-37.561c-13.867 0-25.148 11.281-25.148 25.147v16.509c0 13.867 11.281 25.148 25.148 25.148h216.987c13.866 0 25.148-11.281 25.148-25.148v-16.509c0-13.866-11.281-25.147-25.148-25.147h-30.462c19.37-8.901 37.159-21.379 52.345-36.868l44.436-45.32h55.37c13.7 0 24.845-11.146 24.845-24.846v-13.436c.001-13.703-11.145-24.849-24.845-24.849zm-112.251-83.176-8.921 8.922c-1.587 1.586-4.168 1.585-5.753 0l-6.879-6.879 14.674-14.675 6.879 6.879c1.587 1.586 1.587 4.167 0 5.753zm-11.971-29.798c.288.288.288.755 0 1.043-24.937 24.938-.862.862-25.704 25.704-.287.287-.756.289-1.043.001l-10.353-10.353 26.748-26.748zm-196.249-154.422 15.079-15.078c3.218-3.217 8.452-3.216 11.669 0l10.047 10.047-26.748 26.748-10.047-10.047c-3.217-3.218-3.217-8.453 0-11.67zm23.036 101.553c0-20.875 16.983-37.858 37.859-37.858 20.875 0 37.858 16.983 37.858 37.858s-16.983 37.858-37.858 37.858c-20.876 0-37.859-16.983-37.859-37.858zm66.608 250.976c12.286-14.589 36.16-5.802 36.16 13.197v.498.024 46.464h-86.838zm119.285 85.33v16.509c0 5.595-4.552 10.147-10.148 10.147h-216.986c-5.595 0-10.147-4.552-10.147-10.147v-16.509c0-5.595 4.552-10.147 10.147-10.147h216.987c5.595 0 10.147 4.552 10.147 10.147zm1.025-72.517c-19.308 19.693-43.185 34.071-69.149 41.701v-35.702c33.264-12.799 49.015-34.703 55.992-40.818h47.296zm120.362-59.664c0 5.429-4.416 9.845-9.845 9.845h-156.464c-5.429 0-9.846-4.417-9.846-9.845v-13.436c0-5.429 4.417-9.845 9.846-9.845h156.464c5.429 0 9.845 4.417 9.845 9.845z" data-original="#000000" class="hovered-path active-path" data-old_color="#000000" fill="#FFFFFF"/></g></g> </svg>
