<?xml version="1.0"?>
<svg xmlns="http://www.w3.org/2000/svg" xmlns:xlink="http://www.w3.org/1999/xlink" version="1.1" id="Capa_1" x="0px" y="0px" viewBox="0 0 512 512" style="enable-background:new 0 0 512 512;" xml:space="preserve" width="512px" height="512px" class=""><g><g>
	<g>
		<g>
			<path d="M336,64V32c-11.402,0.004-22.79,0.806-34.08,2.4l4.528,31.696C316.237,64.699,326.112,63.998,336,64z" data-original="#000000" class="active-path" data-old_color="#000000" fill="#FFFFFF"/>
			<path d="M277.456,72.368l-9.04-30.688c-10.937,3.239-21.63,7.249-32,12L249.6,82.784     C258.626,78.654,267.935,75.173,277.456,72.368z" data-original="#000000" class="active-path" data-old_color="#000000" fill="#FFFFFF"/>
			<path d="M223.664,97.04L206.4,70.144C137.535,114.153,95.903,190.274,96,272h32C127.916,201.17,163.989,135.196,223.664,97.04z" data-original="#000000" class="active-path" data-old_color="#000000" fill="#FFFFFF"/>
			<path d="M336,96c-97.155,0.115-175.885,78.845-176,176h32c0-79.529,64.471-144,144-144s144,64.471,144,144s-64.471,144-144,144     v32c97.202,0,176-78.798,176-176S433.202,96,336,96z" data-original="#000000" class="active-path" data-old_color="#000000" fill="#FFFFFF"/>
			<path d="M256,288c-35.346,0-64,28.654-64,64c0,35.346,28.654,64,64,64c35.346,0,64-28.654,64-64C320,316.654,291.346,288,256,288     z M256,384c-17.673,0-32-14.327-32-32c0-17.673,14.327-32,32-32c17.673,0,32,14.327,32,32C288,369.673,273.673,384,256,384z" data-original="#000000" class="active-path" data-old_color="#000000" fill="#FFFFFF"/>
			<path d="M160,400c-0.053-44.161-35.839-79.947-80-80H0v32h80c20.336,0.025,38.458,12.837,45.264,32H0v32h160V400z" data-original="#000000" class="active-path" data-old_color="#000000" fill="#FFFFFF"/>
			<rect y="448" width="288" height="32" data-original="#000000" class="active-path" data-old_color="#000000" fill="#FFFFFF"/>
		</g>
	</g>
</g></g> </svg>
